<svg xmlns="http://www.w3.org/2000/svg" width="28.797" height="19.883" viewBox="0 0 28.797 19.883">
  <defs>
    <style>
      .cls-1 {
        fill: #3a8d55;
      }
    </style>
  </defs>
  <g id="activity" transform="translate(-41.307)">
    <g id="Group_78" data-name="Group 78" transform="translate(41.307)">
      <path id="Path_609" data-name="Path 609" class="cls-1" d="M342.891,99.72a3.224,3.224,0,1,0,3.224-3.223A3.227,3.227,0,0,0,342.891,99.72Zm5.087,0a1.863,1.863,0,1,1-1.863-1.863A1.865,1.865,0,0,1,347.978,99.72Z" transform="translate(-322.382 -89.935)"/>
      <path id="Path_610" data-name="Path 610" class="cls-1" d="M79.52,99.72A3.223,3.223,0,1,0,82.743,96.5,3.227,3.227,0,0,0,79.52,99.72Zm3.223-1.863A1.863,1.863,0,1,1,80.88,99.72,1.865,1.865,0,0,1,82.743,97.857Z" transform="translate(-76.921 -89.935)"/>
      <path id="Path_611" data-name="Path 611" class="cls-1" d="M214.43,6.447a3.224,3.224,0,1,0-3.224-3.224A3.227,3.227,0,0,0,214.43,6.447Zm0-5.087a1.863,1.863,0,1,1-1.863,1.863A1.865,1.865,0,0,1,214.43,1.36Z" transform="translate(-199.652)"/>
      <path id="Path_612" data-name="Path 612" class="cls-1" d="M212.466,197.579a3.224,3.224,0,1,0,3.223,3.224A3.227,3.227,0,0,0,212.466,197.579Zm0,5.087a1.863,1.863,0,1,1,1.863-1.863A1.865,1.865,0,0,1,212.466,202.666Z" transform="translate(-197.823 -184.143)"/>
      <path id="Path_613" data-name="Path 613" class="cls-1" d="M41.91,72.09a.687.687,0,0,0,.753-.6A4.343,4.343,0,0,1,44.67,68.6a.68.68,0,0,0-.726-1.15,5.71,5.71,0,0,0-2.633,3.888A.68.68,0,0,0,41.91,72.09Z" transform="translate(-41.307 -62.764)"/>
      <path id="Path_614" data-name="Path 614" class="cls-1" d="M415.185,176.686a3.377,3.377,0,0,1-1.051.666.68.68,0,1,0,.535,1.251,4.752,4.752,0,0,0,2.449-2.264.68.68,0,0,0-1.205-.631A3.747,3.747,0,0,1,415.185,176.686Z" transform="translate(-388.397 -163.421)"/>
      <path id="Path_615" data-name="Path 615" class="cls-1" d="M104.578,202.824a.68.68,0,0,0-1.227.588,10.034,10.034,0,0,0,5.639,4.677.68.68,0,0,0,.442-1.286A8.828,8.828,0,0,1,104.578,202.824Z" transform="translate(-99.071 -188.672)"/>
      <path id="Path_616" data-name="Path 616" class="cls-1" d="M319.766,9.854a8.738,8.738,0,0,1,5.109,3.643A.68.68,0,0,0,326,12.733a10.034,10.034,0,0,0-5.991-4.217.68.68,0,0,0-.244,1.338Z" transform="translate(-300.31 -7.926)"/>
    </g>
  </g>
</svg>
