<svg xmlns="http://www.w3.org/2000/svg" width="23.425" height="22.529" viewBox="0 0 23.425 22.529">
  <defs>
    <style>
      .cls-1 {
        fill: #176d8e;
      }
    </style>
  </defs>
  <g id="new" transform="translate(0 -9.8)">
    <g id="Group_75" data-name="Group 75" transform="translate(0 9.8)">
      <g id="Group_74" data-name="Group 74" transform="translate(0 0)">
        <path id="Path_605" data-name="Path 605" class="cls-1" d="M21.692,18.746a1.065,1.065,0,0,1-.543-1.672,2.417,2.417,0,0,0-2.725-3.751A1.065,1.065,0,0,1,17,12.291a2.417,2.417,0,0,0-4.41-1.433,1.065,1.065,0,0,1-1.758,0,2.417,2.417,0,0,0-4.41,1.433A1.065,1.065,0,0,1,5,13.324a2.417,2.417,0,0,0-2.725,3.751,1.065,1.065,0,0,1-.543,1.672,2.417,2.417,0,0,0,0,4.637,1.065,1.065,0,0,1,.543,1.672A2.417,2.417,0,0,0,5,28.806a1.065,1.065,0,0,1,1.422,1.033A2.371,2.371,0,0,0,8.093,32.2a2.505,2.505,0,0,0,.774.125,2.366,2.366,0,0,0,1.966-1.057,1.065,1.065,0,0,1,1.758,0A2.417,2.417,0,0,0,17,29.839a1.065,1.065,0,0,1,1.422-1.033,2.417,2.417,0,0,0,2.725-3.751,1.065,1.065,0,0,1,.543-1.672,2.417,2.417,0,0,0,0-4.636Zm-.382,3.34a2.417,2.417,0,0,0-1.232,3.792,1.065,1.065,0,0,1-1.2,1.653,2.417,2.417,0,0,0-3.226,2.344,1.065,1.065,0,0,1-1.944.632,2.417,2.417,0,0,0-3.988,0,1.065,1.065,0,0,1-1.944-.632,2.417,2.417,0,0,0-3.226-2.344,1.065,1.065,0,0,1-1.2-1.653,2.417,2.417,0,0,0-1.232-3.792,1.065,1.065,0,0,1,0-2.044A2.417,2.417,0,0,0,3.348,16.25a1.065,1.065,0,0,1,1.2-1.653,2.417,2.417,0,0,0,3.226-2.344,1.065,1.065,0,0,1,1.944-.632,2.417,2.417,0,0,0,3.988,0,1.065,1.065,0,0,1,1.944.632A2.417,2.417,0,0,0,18.876,14.6a1.065,1.065,0,0,1,1.2,1.653,2.417,2.417,0,0,0,1.232,3.792,1.065,1.065,0,0,1,0,2.044Z" transform="translate(0 -9.8)"/>
      </g>
    </g>
    <g id="Group_77" data-name="Group 77" transform="translate(6.532 17.236)">
      <g id="Group_76" data-name="Group 76">
        <path id="Path_606" data-name="Path 606" class="cls-1" d="M152.893,172.471a.676.676,0,0,0-.953.073l-4.994,5.826-3.1-2.323a.676.676,0,1,0-.811,1.081l3.6,2.7a.676.676,0,0,0,.918-.1l5.406-6.307A.676.676,0,0,0,152.893,172.471Z" transform="translate(-142.768 -172.308)"/>
      </g>
    </g>
  </g>
</svg>
