<svg xmlns="http://www.w3.org/2000/svg" width="23.365" height="22.999" viewBox="0 0 23.365 22.999">
  <defs>
    <style>
      .cls-1 {
        fill: #6d51e3;
      }
    </style>
  </defs>
  <path id="profit" class="cls-1" d="M21.807,7.111,11.639,17.238l-2.932-2.92a.913.913,0,0,0-1.288,0L.268,21.44A.913.913,0,0,0,.913,23H22.451a.913.913,0,0,0,.913-.913V7.758a.913.913,0,0,0-1.557-.647Zm-.269,14.063H3.122l4.941-4.922L11,19.172a.913.913,0,0,0,1.288,0l9.255-9.217ZM23.364.918V4.383a.913.913,0,1,1-1.825,0V3.11l-9.255,9.222a.912.912,0,0,1-1.288,0L8.064,9.411,1.557,15.9A.913.913,0,1,1,.268,14.6L7.42,7.476a.913.913,0,0,1,1.288,0L11.639,10.4l8.6-8.567H18.983a.913.913,0,0,1,0-1.825h3.375a.912.912,0,0,1,1.006.911Zm0,0" transform="translate(0.001 0)"/>
</svg>
